<?xml version="1.0" standalone="no"?>
<!DOCTYPE svg PUBLIC "-//W3C//DTD SVG 20010904//EN"
 "http://www.w3.org/TR/2001/REC-SVG-20010904/DTD/svg10.dtd">
<svg version="1.0" xmlns="http://www.w3.org/2000/svg"
 width="1280.000000pt" height="1040.000000pt" viewBox="0 0 1280.000000 1040.000000"
 preserveAspectRatio="xMidYMid meet">
<metadata>
Created by potrace 1.15, written by Peter Selinger 2001-2017
</metadata>
<g transform="translate(0.000000,1040.000000) scale(0.100000,-0.100000)"
fill="#000000" stroke="none">
<path d="M10436 10384 c-77 -19 -186 -77 -249 -133 -186 -167 -426 -528 -502
-755 -58 -172 -18 -459 80 -573 53 -62 119 -87 235 -87 176 -1 347 73 520 224
95 83 120 93 120 48 0 -71 -194 -270 -351 -361 -62 -36 -167 -49 -301 -37
-185 17 -313 67 -375 149 -40 52 -49 98 -35 181 6 35 9 66 6 69 -8 8 -116 -72
-211 -157 -101 -90 -165 -149 -554 -518 -278 -264 -394 -368 -569 -509 -305
-246 -587 -419 -795 -489 -44 -15 -201 -52 -350 -82 -351 -70 -484 -79 -1060
-71 -515 8 -939 36 -1175 77 -433 75 -864 166 -1120 235 -307 84 -497 77 -758
-26 -100 -40 -186 -84 -412 -212 -107 -61 -242 -133 -300 -160 -58 -27 -119
-60 -136 -73 -43 -33 -138 -75 -290 -127 -72 -25 -150 -55 -175 -67 -156 -78
-315 -221 -377 -337 -45 -86 -50 -151 -62 -818 -12 -704 -27 -953 -71 -1219
-40 -240 -69 -336 -183 -601 -90 -208 -128 -270 -324 -532 -248 -332 -275
-386 -312 -634 -37 -247 -61 -327 -140 -474 -55 -102 -159 -326 -193 -416 -19
-50 -19 -59 -7 -74 24 -28 117 -15 245 36 130 52 182 88 213 150 20 40 23 68
32 265 9 198 19 309 36 383 20 86 100 381 125 460 58 180 87 218 224 295 204
113 325 287 418 596 72 239 112 479 172 1030 71 653 157 1034 228 1007 22 -8
64 -93 136 -275 159 -398 242 -710 301 -1137 37 -269 44 -362 45 -600 0 -357
0 -358 -245 -516 -382 -246 -407 -264 -486 -343 -85 -85 -126 -151 -150 -242
-15 -58 -88 -495 -129 -774 -58 -388 -99 -563 -162 -682 -22 -43 -73 -109
-140 -180 -132 -143 -193 -234 -228 -338 -15 -46 -40 -96 -56 -115 -67 -76
-57 -158 32 -260 82 -94 89 -115 89 -288 l0 -149 28 -28 c39 -39 98 -44 465
-37 302 5 377 13 377 42 0 21 -103 153 -250 320 -154 175 -188 221 -207 284
-62 207 253 828 696 1371 109 133 338 368 416 427 90 68 192 115 406 188 486
166 926 452 1372 893 235 233 384 411 556 667 115 171 207 291 228 299 40 16
153 -103 153 -159 0 -48 -39 -94 -295 -357 -292 -298 -462 -488 -623 -698 -70
-91 -169 -214 -222 -275 -171 -199 -247 -313 -271 -407 -11 -45 -9 -52 16
-103 49 -101 175 -185 584 -389 408 -205 556 -297 670 -422 111 -122 144 -224
158 -491 7 -137 11 -164 27 -182 11 -12 27 -21 36 -21 40 0 80 -72 105 -188
10 -46 26 -94 36 -107 45 -57 408 -197 550 -212 52 -5 58 -3 91 26 77 68 103
204 60 324 -55 155 -242 362 -577 642 -636 532 -826 749 -871 995 -47 263 45
516 221 608 41 22 63 27 126 27 68 -1 84 -5 150 -37 41 -21 106 -62 144 -92
154 -121 224 -156 308 -156 49 0 113 27 166 69 100 80 359 181 691 271 203 55
650 163 805 195 72 15 174 30 227 32 91 5 99 4 141 -20 93 -55 172 -162 223
-302 22 -63 98 -140 220 -223 115 -79 175 -130 348 -300 295 -291 542 -608
652 -838 94 -195 115 -294 139 -649 24 -354 33 -396 95 -446 52 -42 79 -101
95 -207 21 -135 42 -174 130 -241 230 -174 521 -262 766 -232 107 13 192 39
231 71 22 17 22 20 10 66 -35 134 -208 411 -331 534 -76 76 -175 147 -329 236
-253 147 -414 405 -532 850 -11 43 -39 166 -61 273 -76 363 -201 823 -279
1026 -62 161 -90 282 -105 460 -11 135 30 300 75 300 41 0 50 -82 40 -345 -4
-110 -3 -119 23 -172 35 -71 111 -143 168 -158 28 -8 99 -11 199 -8 185 5 205
12 318 122 115 111 179 215 197 318 3 21 16 50 29 66 34 39 46 120 46 301 l0
156 -108 2 c-121 1 -211 27 -238 67 -28 43 -60 259 -89 596 -39 448 -66 596
-162 885 -80 243 -118 318 -177 354 -45 28 -204 194 -309 323 -48 60 -87 110
-87 113 0 12 231 -113 327 -177 181 -121 378 -328 450 -473 57 -114 68 -202
83 -640 25 -745 50 -829 251 -828 103 1 146 23 249 127 114 116 193 224 255
351 91 183 144 369 250 875 115 547 376 1041 751 1423 122 124 244 218 395
306 113 65 165 111 156 135 -13 33 -148 22 -346 -29 -340 -86 -624 -96 -766
-26 -67 33 -190 139 -201 173 -5 16 0 27 16 40 37 30 69 23 114 -25 52 -56 86
-78 161 -108 53 -20 76 -23 195 -23 141 1 174 6 390 64 148 40 266 48 418 26
217 -31 313 -22 584 55 161 46 245 86 291 140 43 50 122 192 147 263 83 242
-22 371 -431 529 -234 91 -307 136 -464 287 -60 58 -138 127 -172 153 -279
213 -707 377 -985 377 -108 0 -178 -16 -235 -54 -79 -52 -171 -42 -251 28 -49
43 -92 137 -92 203 0 107 76 279 189 427 21 28 86 103 145 166 113 122 131
154 101 177 -23 16 -63 16 -139 -3z m911 -1529 c39 -27 43 -144 6 -180 -8 -8
-25 -15 -39 -15 -29 0 -139 49 -173 77 l-25 20 30 28 c42 39 125 85 154 85 14
0 35 -7 47 -15z m989 -475 c-20 -29 -33 -56 -30 -61 3 -5 25 -9 50 -9 50 0
102 -18 123 -44 21 -25 0 -66 -34 -66 -18 0 -26 7 -31 25 -7 28 -38 50 -55 39
-6 -3 -9 -19 -6 -34 16 -79 -108 -57 -129 24 -8 33 11 88 39 113 31 29 99 74
104 69 3 -2 -12 -28 -31 -56z"/>
<path d="M11415 9854 c-59 -164 -99 -235 -177 -310 -69 -67 -75 -94 -25 -125
27 -17 45 -19 122 -17 109 4 155 23 182 76 15 31 18 61 17 192 -1 133 -4 166
-25 234 -13 44 -29 81 -35 83 -6 2 -32 -58 -59 -133z"/>
</g>
</svg>
